<?xml version="1.0" encoding="utf-8"?>
<!-- Generator: Adobe Illustrator 16.0.2, SVG Export Plug-In . SVG Version: 6.00 Build 0)  -->
<!DOCTYPE svg PUBLIC "-//W3C//DTD SVG 1.1//EN" "http://www.w3.org/Graphics/SVG/1.1/DTD/svg11.dtd">
<svg version="1.1" id="Layer_1" xmlns="http://www.w3.org/2000/svg" xmlns:xlink="http://www.w3.org/1999/xlink" x="0px" y="0px"
	 width="512px" height="512px" viewBox="-241 -241 512 512" enable-background="new -241 -241 512 512" xml:space="preserve">
<path fill="#F52222" d="M15-235c-138.069,0-250,111.931-250,250c0,138.07,111.931,250,250,250c138.071,0,250-111.93,250-250
	C265-123.069,153.07-235,15-235z M15,231.668c-119.669,0-216.667-97.006-216.667-216.667c0-119.669,96.998-216.667,216.667-216.667
	c119.663,0,216.667,96.997,216.667,216.667C231.666,134.662,134.662,231.668,15,231.668z M-51.667-1.666
	c18.4,0,33.333-14.933,33.333-33.333c0-18.4-14.933-33.334-33.333-33.334S-85-53.399-85-34.999
	C-85-16.599-70.066-1.666-51.667-1.666z M81.666-1.666C100.059-1.666,115-16.599,115-34.999c0-18.4-14.941-33.334-33.334-33.334
	c-18.392,0-33.332,14.934-33.332,33.334C48.334-16.599,63.274-1.666,81.666-1.666z M15.001,108.294
	c42.48,0,79.533,22.771,99.95,56.706l28.549-17.139c-26.229-43.62-73.885-72.9-128.499-72.9c-54.622,0-102.28,29.28-128.5,72.9
	L-84.935,165C-64.524,131.064-27.479,108.294,15.001,108.294z"/>
</svg>
